<?xml version="1.0" encoding="UTF-8"?><svg id="Layer_2" xmlns="http://www.w3.org/2000/svg" viewBox="0 0 814.15 134.92"><defs><style>.cls-1{fill:#fff;}</style></defs><g id="Layer_1-2"><g><rect class="cls-1" x="8.92" y="25.04" width="117.24" height="91.11"/><g><g><path d="M105.46,0H29.45C13.19,0,0,13.19,0,29.45V105.46c0,16.27,13.19,29.45,29.45,29.45H105.46c16.27,0,29.45-13.19,29.45-29.45V29.45c0-16.27-13.19-29.45-29.45-29.45Zm12.14,34.53V100.05c0,1.45-1.28,2.63-2.86,2.63H20.18c-1.58,0-2.86-1.18-2.86-2.63V34.85c-.01-.14-.02-.28,0-.42,0-.08,0-.15,0-.23l.03-.16,.12-.32,.11-.19c.05-.09,.1-.16,.16-.24,.19-.27,.47-.52,.8-.71l.32-.14,.78-.21c.17-.02,.35-.02,.52,0H115.31l.27,.07c.06,0,.17,.04,.28,.08,.09,.03,.17,.07,.25,.11,.07,.03,.14,.06,.21,.1l.27,.18c.07,.05,.14,.1,.2,.16,.07,.06,.17,.15,.25,.25l.12,.14c.21,.28,.36,.59,.44,.93l.05,.19-.02,.09Z"/><path d="M66.12,79.41L22.99,41.05v56.37H111.89V41.15l-41.78,38.23c-.54,.49-1.25,.76-2,.76-.75,0-1.45-.26-1.99-.73Z"/><polygon points="18.25 33.91 18.25 33.91 18.25 33.91 18.25 33.91"/><polygon points="27.2 37.44 68.07 73.83 107.85 37.44 27.2 37.44"/></g><g><g><path d="M191.21,34.77h13.79l20.45,51.03h.32l20.45-51.03h13.79V101.53h-10.73V54.02h-5.51l12.17-17.39-26.28,64.91h-8.1l-26.28-64.91,12.17,17.39h-5.51v47.51h-10.73V34.77Z"/><path d="M272.13,43.61c-1.23-1.23-1.85-2.71-1.85-4.44s.62-3.25,1.85-4.46c1.23-1.22,2.74-1.83,4.53-1.83s3.35,.61,4.58,1.83c1.23,1.22,1.85,2.71,1.85,4.46s-.62,3.21-1.85,4.44c-1.23,1.23-2.76,1.85-4.58,1.85s-3.3-.62-4.53-1.85Zm-1.2,8.88h11.52v49.04h-11.52V52.49Z"/><path d="M292.21,52.49h11.47v7.68h.28c1.26-2.65,3.15-4.76,5.67-6.34,2.51-1.57,5.62-2.36,9.32-2.36,5.4,0,9.57,1.64,12.51,4.9,2.95,3.27,4.42,7.74,4.42,13.42v31.74h-11.52v-29.42c0-3.48-.82-6.18-2.45-8.07-1.64-1.9-4.09-2.85-7.36-2.85-2.19,0-4.1,.5-5.74,1.5-1.64,1-2.9,2.39-3.79,4.16-.89,1.77-1.34,3.85-1.34,6.22v28.45h-11.47V52.49Z"/><path d="M346.61,43.61c-1.23-1.23-1.85-2.71-1.85-4.44s.62-3.25,1.85-4.46c1.23-1.22,2.74-1.83,4.53-1.83s3.35,.61,4.58,1.83c1.23,1.22,1.85,2.71,1.85,4.46s-.62,3.21-1.85,4.44c-1.23,1.23-2.76,1.85-4.58,1.85s-3.3-.62-4.53-1.85Zm-1.2,8.88h11.52v49.04h-11.52V52.49Z"/><path d="M386.86,34.77h13.79l20.45,51.03h.32l20.45-51.03h13.79V101.53h-10.73V54.02h-5.5l12.17-17.39-26.28,64.91h-8.1l-26.28-64.91,12.17,17.39h-5.5v47.51h-10.73V34.77Z"/><path d="M470.99,100.49c-2.48-1.25-4.41-2.99-5.78-5.23-1.37-2.24-2.06-4.8-2.06-7.7v-.09c0-4.35,1.63-7.8,4.88-10.34,3.25-2.54,7.84-3.99,13.76-4.33l18.74-1.16v7.63l-17.12,1.06c-2.84,.19-5.01,.86-6.52,2.04-1.51,1.17-2.27,2.73-2.27,4.67v.05c0,2.01,.76,3.59,2.29,4.74,1.53,1.16,3.55,1.74,6.08,1.74,2.22,0,4.2-.45,5.95-1.34,1.74-.89,3.12-2.11,4.14-3.66,1.02-1.54,1.53-3.29,1.53-5.23v-14.71c0-2.47-.78-4.42-2.34-5.85-1.56-1.43-3.8-2.15-6.73-2.15-2.71,0-4.89,.58-6.52,1.74-1.64,1.16-2.65,2.64-3.05,4.46l-.09,.42h-10.64l.05-.56c.25-2.9,1.22-5.5,2.91-7.8,1.7-2.3,4.05-4.11,7.06-5.44,3.01-1.33,6.58-1.99,10.71-1.99s7.66,.68,10.66,2.04c3.01,1.36,5.34,3.25,6.99,5.69,1.65,2.44,2.48,5.31,2.48,8.61v33.73h-11.47v-7.54h-.28c-.93,1.7-2.13,3.18-3.61,4.44-1.48,1.27-3.17,2.24-5.07,2.91-1.9,.68-3.92,1.02-6.08,1.02-3.24,0-6.1-.62-8.58-1.87Z"/><path d="M516.91,43.61c-1.23-1.23-1.85-2.71-1.85-4.44s.62-3.25,1.85-4.46c1.23-1.22,2.74-1.83,4.53-1.83s3.35,.61,4.58,1.83c1.23,1.22,1.85,2.71,1.85,4.46s-.62,3.21-1.85,4.44c-1.23,1.23-2.76,1.85-4.58,1.85s-3.3-.62-4.53-1.85Zm-1.2,8.88h11.52v49.04h-11.52V52.49Z"/><path d="M537.31,34.77h11.52V101.53h-11.52V34.77Z"/><path d="M576.72,100.03c-2.62-1.65-4.64-3.92-6.06-6.82h-.23v8.33h-11.52V34.77h11.52v26.14h.23c1.42-2.93,3.46-5.23,6.13-6.92,2.67-1.68,5.74-2.52,9.23-2.52,4.1,0,7.66,1.03,10.69,3.08,3.02,2.05,5.37,4.98,7.03,8.79,1.67,3.81,2.5,8.35,2.5,13.62v.05c0,5.24-.83,9.78-2.48,13.6-1.65,3.82-3.99,6.76-7.03,8.81-3.04,2.05-6.64,3.08-10.8,3.08-3.52,0-6.58-.83-9.21-2.47Zm12.19-9.11c1.8-1.28,3.18-3.11,4.14-5.48,.96-2.37,1.43-5.18,1.43-8.42v-.05c0-3.27-.49-6.08-1.46-8.42-.97-2.34-2.35-4.16-4.14-5.44-1.79-1.28-3.92-1.92-6.38-1.92s-4.46,.65-6.27,1.94c-1.8,1.3-3.23,3.12-4.28,5.48-1.05,2.36-1.57,5.14-1.57,8.35v.05c0,3.21,.52,6,1.55,8.37,1.03,2.37,2.46,4.21,4.28,5.5,1.82,1.3,3.92,1.94,6.29,1.94s4.6-.64,6.41-1.92Z"/><path d="M622.8,99.42c-3.55-2.05-6.3-4.98-8.26-8.79-1.96-3.81-2.94-8.35-2.94-13.62v-.09c0-5.24,.99-9.77,2.96-13.58,1.97-3.81,4.73-6.74,8.28-8.79,3.55-2.05,7.7-3.08,12.45-3.08s8.95,1.03,12.51,3.08c3.56,2.05,6.33,4.97,8.3,8.77,1.97,3.79,2.96,8.33,2.96,13.6v.09c0,5.31-.98,9.86-2.94,13.67-1.96,3.81-4.71,6.73-8.26,8.77-3.55,2.04-7.73,3.05-12.54,3.05s-8.99-1.02-12.54-3.08Zm18.92-8.12c1.79-1.27,3.17-3.11,4.14-5.53,.97-2.42,1.46-5.34,1.46-8.77v-.09c0-3.39-.49-6.29-1.48-8.7-.99-2.41-2.38-4.24-4.19-5.51-1.8-1.26-3.93-1.9-6.36-1.9s-4.46,.63-6.27,1.9c-1.8,1.27-3.21,3.1-4.21,5.51-1,2.41-1.5,5.31-1.5,8.7v.09c0,3.42,.5,6.35,1.5,8.77,1,2.42,2.41,4.26,4.21,5.53,1.8,1.26,3.92,1.9,6.36,1.9s4.55-.63,6.34-1.9Z"/><path d="M675.36,77.06l-15.68-24.57h12.95l9.85,17.21h.23l9.81-17.21h12.58l-15.78,24.24,15.59,24.8h-12.54l-10.22-17.58h-.23l-10.13,17.58h-12.31l15.87-24.47Z"/><path d="M718.68,99.4c-3.53-2.07-6.24-5-8.12-8.79-1.88-3.79-2.82-8.28-2.82-13.46v-.05c0-5.15,.95-9.65,2.85-13.49,1.9-3.84,4.56-6.82,8-8.95,3.44-2.13,7.5-3.19,12.19-3.19s8.69,1.03,12.1,3.08c3.41,2.05,6.03,4.93,7.86,8.63,1.83,3.7,2.75,8.02,2.75,12.95v3.7h-40.06v-7.68h34.56l-5.55,7.17v-4.44c0-3.21-.49-5.88-1.48-8-.99-2.13-2.34-3.72-4.07-4.79-1.73-1.06-3.72-1.6-5.97-1.6s-4.31,.55-6.08,1.64c-1.77,1.1-3.16,2.72-4.16,4.88-1,2.16-1.5,4.78-1.5,7.86v4.44c0,2.99,.5,5.54,1.5,7.66,1,2.11,2.43,3.73,4.28,4.86,1.85,1.13,4.06,1.69,6.62,1.69,1.91,0,3.59-.3,5.04-.9,1.45-.6,2.64-1.38,3.59-2.34,.94-.96,1.6-1.99,1.97-3.1l.09-.32h10.73l-.09,.51c-.4,1.88-1.14,3.72-2.22,5.53-1.08,1.8-2.53,3.43-4.35,4.88-1.82,1.45-3.98,2.6-6.48,3.45-2.5,.85-5.34,1.27-8.51,1.27-4.9,0-9.12-1.03-12.65-3.1Z"/><path d="M769.02,100.6c-3.04-1.26-5.41-3.05-7.12-5.34-1.71-2.3-2.75-4.96-3.12-7.98l-.05-.42h11.33l.09,.42c.43,2.13,1.46,3.78,3.08,4.95,1.62,1.17,3.89,1.76,6.82,1.76,1.88,0,3.49-.23,4.81-.69,1.33-.46,2.35-1.14,3.08-2.04,.72-.89,1.09-1.94,1.09-3.15v-.05c0-1.45-.49-2.63-1.48-3.54-.99-.91-2.76-1.66-5.32-2.24l-8.14-1.8c-4.69-1.02-8.21-2.68-10.57-5-2.36-2.31-3.54-5.29-3.54-8.93v-.05c0-2.99,.82-5.61,2.45-7.87,1.63-2.25,3.93-4.01,6.89-5.27,2.96-1.27,6.4-1.9,10.32-1.9s7.56,.68,10.46,2.04c2.9,1.36,5.14,3.18,6.73,5.46,1.59,2.28,2.44,4.84,2.57,7.68l.05,.51h-10.73l-.05-.37c-.25-1.97-1.14-3.6-2.68-4.88-1.54-1.28-3.65-1.92-6.34-1.92-1.7,0-3.17,.25-4.42,.74-1.25,.49-2.21,1.19-2.87,2.08-.66,.89-.99,1.94-.99,3.15v.05c0,1.39,.53,2.56,1.6,3.52,1.06,.96,2.86,1.73,5.39,2.31l8.14,1.8c5.09,1.14,8.71,2.77,10.87,4.88,2.16,2.11,3.24,4.94,3.24,8.49v.05c0,3.08-.88,5.79-2.64,8.12-1.76,2.33-4.19,4.13-7.29,5.41-3.1,1.28-6.65,1.92-10.66,1.92-4.29,0-7.95-.63-10.99-1.9Z"/></g><g><path d="M805.35,97.12h-1.78v-.63h4.27v.63h-1.78v5.02h-.71v-5.02Z"/><path d="M808.58,96.48h.81l1.96,4.76h.02l1.96-4.76h.81v5.65h-.66v-4.37h-.32l.76-1.13-2.27,5.5h-.6l-2.27-5.5,.76,1.13h-.32v4.37h-.66v-5.65Z"/></g></g></g></g></g></svg>